<?xml version="1.0" encoding="UTF-8"?>
<mxfile host="app.diagrams.net" modified="2024-01-23T00:00:00.000Z" agent="Mozilla/5.0" version="21.0.2" type="device">
  <diagram id="architecture-diagram" name="AWS Docker Architecture">
    <mxGraphModel dx="1422" dy="798" grid="0" gridSize="10" guides="1" tooltips="1" connect="1" arrows="1" fold="1" page="1" pageScale="1" pageWidth="1100" pageHeight="850" background="#ffffff" math="0" shadow="0">
      <root>
        <mxCell id="0"/>
        <mxCell id="1" parent="0"/>
        
        <!-- Title -->
        <mxCell id="title" value="AWS Docker Architecture - Java Login Application" style="text;html=1;strokeColor=none;fillColor=none;align=center;verticalAlign=middle;whiteSpace=wrap;rounded=0;fontSize=24;fontStyle=1;fontColor=#232F3E;" vertex="1" parent="1">
          <mxGeometry x="250" y="20" width="600" height="40" as="geometry"/>
        </mxCell>

        <!-- User and Internet -->
        <mxCell id="user" value="Users" style="sketch=0;outlineConnect=0;fontColor=#232F3E;gradientColor=none;fillColor=#232F3E;strokeColor=none;dashed=0;verticalLabelPosition=bottom;verticalAlign=top;align=center;html=1;fontSize=12;fontStyle=0;aspect=fixed;pointerEvents=1;shape=mxgraph.aws4.users;" vertex="1" parent="1">
          <mxGeometry x="50" y="280" width="78" height="78" as="geometry"/>
        </mxCell>

        <mxCell id="internet" value="Internet" style="sketch=0;outlineConnect=0;fontColor=#232F3E;gradientColor=none;fillColor=#232F3E;strokeColor=none;dashed=0;verticalLabelPosition=bottom;verticalAlign=top;align=center;html=1;fontSize=12;fontStyle=0;aspect=fixed;pointerEvents=1;shape=mxgraph.aws4.internet;" vertex="1" parent="1">
          <mxGeometry x="180" y="280" width="78" height="78" as="geometry"/>
        </mxCell>

        <!-- AWS Cloud -->
        <mxCell id="aws_cloud" value="AWS Cloud" style="points=[[0,0],[0.25,0],[0.5,0],[0.75,0],[1,0],[1,0.25],[1,0.5],[1,0.75],[1,1],[0.75,1],[0.5,1],[0.25,1],[0,1],[0,0.75],[0,0.5],[0,0.25]];outlineConnect=0;gradientColor=none;html=1;whiteSpace=wrap;fontSize=12;fontStyle=0;container=1;pointerEvents=0;collapsible=0;recursiveResize=0;shape=mxgraph.aws4.group;grIcon=mxgraph.aws4.group_aws_cloud_alt;strokeColor=#232F3E;fillColor=none;verticalAlign=top;align=left;spacingLeft=30;fontColor=#232F3E;dashed=0;" vertex="1" parent="1">
          <mxGeometry x="320" y="100" width="600" height="500" as="geometry"/>
        </mxCell>

        <!-- Route 53 -->
        <mxCell id="route53" value="Route 53" style="sketch=0;points=[[0,0,0],[0.25,0,0],[0.5,0,0],[0.75,0,0],[1,0,0],[0,1,0],[0.25,1,0],[0.5,1,0],[0.75,1,0],[1,1,0],[0,0.25,0],[0,0.5,0],[0,0.75,0],[1,0.25,0],[1,0.5,0],[1,0.75,0]];outlineConnect=0;fontColor=#232F3E;gradientColor=#945DF2;gradientDirection=north;fillColor=#5A30B5;strokeColor=#ffffff;dashed=0;verticalLabelPosition=bottom;verticalAlign=top;align=center;html=1;fontSize=12;fontStyle=0;aspect=fixed;shape=mxgraph.aws4.resourceIcon;resIcon=mxgraph.aws4.route_53;" vertex="1" parent="aws_cloud">
          <mxGeometry x="40" y="180" width="78" height="78" as="geometry"/>
        </mxCell>

        <!-- EC2 Instance -->
        <mxCell id="ec2_container" value="EC2 Instance" style="points=[[0,0],[0.25,0],[0.5,0],[0.75,0],[1,0],[1,0.25],[1,0.5],[1,0.75],[1,1],[0.75,1],[0.5,1],[0.25,1],[0,1],[0,0.75],[0,0.5],[0,0.25]];outlineConnect=0;gradientColor=none;html=1;whiteSpace=wrap;fontSize=12;fontStyle=0;container=1;pointerEvents=0;collapsible=0;recursiveResize=0;shape=mxgraph.aws4.group;grIcon=mxgraph.aws4.group_ec2_instance_contents;strokeColor=#D86613;fillColor=none;verticalAlign=top;align=left;spacingLeft=30;fontColor=#D86613;dashed=0;" vertex="1" parent="aws_cloud">
          <mxGeometry x="160" y="40" width="400" height="420" as="geometry"/>
        </mxCell>

        <!-- Docker Environment -->
        <mxCell id="docker" value="Docker Environment" style="rounded=1;whiteSpace=wrap;html=1;verticalAlign=top;fillColor=#E6F2F8;strokeColor=#147EBA;fontSize=12;fontStyle=1;arcSize=5;" vertex="1" parent="ec2_container">
          <mxGeometry x="20" y="40" width="360" height="360" as="geometry"/>
        </mxCell>

        <!-- Containers -->
        <mxCell id="nginx" value="NGINX&#xa;Proxy Reverse&#xa;:80" style="shape=hexagon;perimeter=hexagonPerimeter2;whiteSpace=wrap;html=1;fixedSize=1;fillColor=#dae8fc;strokeColor=#6c8ebf;fontSize=11;fontStyle=1" vertex="1" parent="docker">
          <mxGeometry x="40" y="80" width="120" height="80" as="geometry"/>
        </mxCell>

        <mxCell id="tomcat" value="Tomcat&#xa;Application Server&#xa;:8080" style="shape=hexagon;perimeter=hexagonPerimeter2;whiteSpace=wrap;html=1;fixedSize=1;fillColor=#d5e8d4;strokeColor=#82b366;fontSize=11;fontStyle=1" vertex="1" parent="docker">
          <mxGeometry x="120" y="180" width="120" height="80" as="geometry"/>
        </mxCell>

        <mxCell id="mysql" value="MySQL&#xa;Database&#xa;:3306" style="shape=cylinder3;whiteSpace=wrap;html=1;boundedLbl=1;backgroundOutline=1;size=15;fillColor=#f8cecc;strokeColor=#b85450;fontSize=11;fontStyle=1" vertex="1" parent="docker">
          <mxGeometry x="200" y="80" width="120" height="80" as="geometry"/>
        </mxCell>

        <!-- Volumes -->
        <mxCell id="volumes" value="Docker Volumes" style="shape=cylinder3;whiteSpace=wrap;html=1;boundedLbl=1;backgroundOutline=1;size=15;fillColor=#f5f5f5;strokeColor=#666666;fontColor=#333333;fontSize=11;fontStyle=1" vertex="1" parent="docker">
          <mxGeometry x="120" y="280" width="120" height="60" as="geometry"/>
        </mxCell>

        <!-- External Services -->
        <mxCell id="terraform" value="Terraform&#xa;Infrastructure as Code" style="rounded=1;whiteSpace=wrap;html=1;fillColor=#e1d5e7;strokeColor=#9673a6;fontSize=12;fontStyle=1" vertex="1" parent="1">
          <mxGeometry x="980" y="180" width="120" height="60" as="geometry"/>
        </mxCell>

        <mxCell id="bitbucket" value="Bitbucket&#xa;Source Code Repository" style="shape=cylinder3;whiteSpace=wrap;html=1;boundedLbl=1;backgroundOutline=1;size=15;fillColor=#f5f5f5;strokeColor=#666666;fontColor=#333333;fontSize=12;fontStyle=1" vertex="1" parent="1">
          <mxGeometry x="980" y="280" width="120" height="100" as="geometry"/>
        </mxCell>

        <!-- Connections -->
        <mxCell id="conn1" value="" style="edgeStyle=orthogonalEdgeStyle;rounded=1;orthogonalLoop=1;jettySize=auto;html=1;strokeWidth=2;strokeColor=#232F3E;" edge="1" parent="1" source="user" target="internet">
          <mxGeometry relative="1" as="geometry"/>
        </mxCell>

        <mxCell id="conn2" value="" style="edgeStyle=orthogonalEdgeStyle;rounded=1;orthogonalLoop=1;jettySize=auto;html=1;strokeWidth=2;strokeColor=#232F3E;" edge="1" parent="1" source="internet" target="route53">
          <mxGeometry relative="1" as="geometry"/>
        </mxCell>

        <mxCell id="conn3" value="" style="edgeStyle=orthogonalEdgeStyle;rounded=1;orthogonalLoop=1;jettySize=auto;html=1;strokeWidth=2;strokeColor=#232F3E;" edge="1" parent="1" source="route53" target="nginx">
          <mxGeometry relative="1" as="geometry"/>
        </mxCell>

        <mxCell id="conn4" value="" style="edgeStyle=orthogonalEdgeStyle;rounded=1;orthogonalLoop=1;jettySize=auto;html=1;strokeWidth=2;strokeColor=#232F3E;" edge="1" parent="1" source="nginx" target="tomcat">
          <mxGeometry relative="1" as="geometry"/>
        </mxCell>

        <mxCell id="conn5" value="" style="edgeStyle=orthogonalEdgeStyle;rounded=1;orthogonalLoop=1;jettySize=auto;html=1;strokeWidth=2;strokeColor=#232F3E;" edge="1" parent="1" source="tomcat" target="mysql">
          <mxGeometry relative="1" as="geometry"/>
        </mxCell>

        <mxCell id="conn6" value="" style="edgeStyle=orthogonalEdgeStyle;rounded=1;orthogonalLoop=1;jettySize=auto;html=1;strokeWidth=2;strokeColor=#232F3E;dashed=1;" edge="1" parent="1" source="terraform" target="aws_cloud">
          <mxGeometry relative="1" as="geometry"/>
        </mxCell>

        <mxCell id="conn7" value="" style="edgeStyle=orthogonalEdgeStyle;rounded=1;orthogonalLoop=1;jettySize=auto;html=1;strokeWidth=2;strokeColor=#232F3E;dashed=1;" edge="1" parent="1" source="bitbucket" target="docker">
          <mxGeometry relative="1" as="geometry"/>
        </mxCell>

        <!-- Legend -->
        <mxCell id="legend" value="Legend" style="swimlane;fontStyle=1;childLayout=stackLayout;horizontal=1;startSize=30;horizontalStack=0;resizeParent=1;resizeParentMax=0;resizeLast=0;collapsible=1;marginBottom=0;fillColor=#f5f5f5;strokeColor=#666666;fontColor=#333333;" vertex="1" parent="1">
          <mxGeometry x="980" y="420" width="140" height="120" as="geometry"/>
        </mxCell>
        <mxCell id="legend1" value="→ Data Flow" style="text;strokeColor=none;fillColor=none;align=left;verticalAlign=middle;spacingLeft=4;spacingRight=4;overflow=hidden;points=[[0,0.5],[1,0.5]];portConstraint=eastwest;rotatable=0;" vertex="1" parent="legend">
          <mxGeometry y="30" width="140" height="30" as="geometry"/>
        </mxCell>
        <mxCell id="legend2" value="⇢ Provisioning" style="text;strokeColor=none;fillColor=none;align=left;verticalAlign=middle;spacingLeft=4;spacingRight=4;overflow=hidden;points=[[0,0.5],[1,0.5]];portConstraint=eastwest;rotatable=0;" vertex="1" parent="legend">
          <mxGeometry y="60" width="140" height="30" as="geometry"/>
        </mxCell>
        <mxCell id="legend3" value="□ AWS Service" style="text;strokeColor=none;fillColor=none;align=left;verticalAlign=middle;spacingLeft=4;spacingRight=4;overflow=hidden;points=[[0,0.5],[1,0.5]];portConstraint=eastwest;rotatable=0;" vertex="1" parent="legend">
          <mxGeometry y="90" width="140" height="30" as="geometry"/>
        </mxCell>

      </root>
    </mxGraphModel>
  </diagram>
</mxfile>
